<svg width="21" height="16" viewBox="0 0 21 16" fill="none" xmlns="http://www.w3.org/2000/svg">
<path d="M2.6437 0.800049H18.5437C20.0437 0.800049 20.7997 1.50805 20.7997 2.94805V13.052C20.7997 14.48 20.0437 15.2 18.5437 15.2H2.6437C1.1437 15.2 0.387695 14.48 0.387695 13.052V2.94805C0.387695 1.50805 1.1437 0.800049 2.6437 0.800049ZM10.5877 11.12L18.6757 4.48405C18.9637 4.24405 19.1917 3.69205 18.8317 3.20005C18.4837 2.70805 17.8477 2.69605 17.4277 2.99605L10.5877 7.62805L3.7597 2.99605C3.3397 2.69605 2.7037 2.70805 2.3557 3.20005C1.9957 3.69205 2.2237 4.24405 2.5117 4.48405L10.5877 11.12Z" fill="white"/>
</svg>
